<?xml version="1.0" standalone="no"?>
<!DOCTYPE svg PUBLIC "-//W3C//DTD SVG 20010904//EN"
 "http://www.w3.org/TR/2001/REC-SVG-20010904/DTD/svg10.dtd">
<svg version="1.0" xmlns="http://www.w3.org/2000/svg"
 width="260.000000pt" height="260.000000pt" viewBox="0 0 260.000000 260.000000"
 preserveAspectRatio="xMidYMid meet">
<metadata>
Created by potrace 1.14, written by Peter Selinger 2001-2017
</metadata>
<g transform="translate(0.000000,260.000000) scale(0.100000,-0.100000)"
fill="#000000" stroke="none">
<path d="M0 1300 l0 -1300 1300 0 1300 0 0 1300 0 1300 -1300 0 -1300 0 0
-1300z m2500 0 l0 -1200 -1200 0 -1200 0 0 1200 0 1200 1200 0 1200 0 0 -1200z"/>
<path d="M1030 2015 l0 -75 75 0 75 0 0 75 0 75 -75 0 -75 0 0 -75z"/>
<path d="M806 2011 l-46 -60 59 -45 60 -46 45 59 46 60 -59 45 -60 46 -45 -59z"/>
<path d="M1297 1342 c-328 -328 -597 -602 -597 -609 0 -6 11 -20 25 -31 l25
-20 601 601 600 600 -27 28 c-15 16 -28 29 -28 29 -1 0 -270 -269 -599 -598z"/>
<path d="M500 1825 l0 -75 75 0 75 0 0 75 0 75 -75 0 -75 0 0 -75z"/>
<path d="M938 1804 l-57 -47 19 -26 c10 -14 32 -41 47 -59 l29 -32 44 37 c77
65 74 59 41 95 -16 18 -37 43 -48 56 l-18 22 -57 -46z"/>
<path d="M500 1655 l0 -75 75 0 75 0 0 75 0 75 -75 0 -75 0 0 -75z"/>
<path d="M660 1655 l0 -75 75 0 75 0 0 75 0 75 -75 0 -75 0 0 -75z"/>
<path d="M500 1485 l0 -75 75 0 75 0 0 75 0 75 -75 0 -75 0 0 -75z"/>
<path d="M660 1485 l0 -75 75 0 75 0 0 75 0 75 -75 0 -75 0 0 -75z"/>
<path d="M830 1485 l0 -75 75 0 75 0 0 75 0 75 -75 0 -75 0 0 -75z"/>
<path d="M1639 1028 c-1 -2 -2 -101 -3 -221 l-1 -217 32 0 32 0 -1 64 c-1 58
2 68 31 105 18 23 36 41 39 41 8 0 17 -13 55 -82 64 -116 75 -128 112 -128 19
0 35 2 35 4 0 9 -135 231 -142 234 -26 11 2 57 110 185 14 16 12 17 -24 17
-38 -1 -42 -5 -124 -109 -47 -60 -87 -105 -90 -100 -3 5 -5 54 -3 109 l3 100
-30 0 c-17 0 -31 -1 -31 -2z"/>
</g>
</svg>
